<svg xmlns="http://www.w3.org/2000/svg" width="201.41" height="59.29" viewBox="0 0 201.41 59.29">
  <g id="Capa_2" data-name="Capa 2">
    <g id="Capa_1-2" data-name="Capa 1">
      <g>
        <g>
          <path d="M17.19,7.44a10.59,10.59,0,0,1,7.88-5.9,1.7,1.7,0,0,1,1.77.82,10.63,10.63,0,0,1,.53,9.84,10.71,10.71,0,0,1-9,6A10.7,10.7,0,0,1,17.19,7.44Z" fill="#00a62c"/>
          <path d="M13.41,8.81a10.61,10.61,0,0,0-9.83.52,1.72,1.72,0,0,0-.83,1.77A10.61,10.61,0,0,0,8.66,19a10.7,10.7,0,0,0,10.8-1.14A10.71,10.71,0,0,0,13.41,8.81Z" fill="#29ce69"/>
          <path d="M10.35,17.2A10.61,10.61,0,0,1,4.44,9.32a1.55,1.55,0,0,1,0-.43c-.29.14-.57.28-.85.44a1.72,1.72,0,0,0-.83,1.77A10.61,10.61,0,0,0,8.66,19a10.7,10.7,0,0,0,10.8-1.14c0-.25-.05-.5-.08-.74a10.53,10.53,0,0,1-9,.1Z" fill="#00a62c"/>
          <ellipse cx="25.43" cy="36.05" rx="23.88" ry="21.85" transform="translate(-10.77 10.83) rotate(-19.94)" fill="#ffa93f"/>
          <path d="M7.12,42.69C3.23,32,9,19.94,20.08,14.85c-.7.19-1.4.4-2.1.66C5.59,20-1.13,32.84,3,44.19s17.5,16.89,29.89,12.4q1-.39,2-.84C23.14,58.94,11,53.4,7.12,42.69Z" fill="#f88000"/>
          <g>
            <ellipse cx="14.39" cy="41.11" rx="4.47" ry="3.56" transform="translate(-13.09 7.32) rotate(-19.82)" fill="#ff6e80"/>
            <ellipse cx="37.16" cy="32.91" rx="4.47" ry="3.56" transform="translate(-8.96 14.55) rotate(-19.82)" fill="#ff6e80"/>
          </g>
        </g>
        <g>
          <path d="M15.34,35.55a.94.94,0,0,0-.49-.53.9.9,0,0,0-.72,0,.94.94,0,0,0-.57,1.21l.62,1.71a1,1,0,0,0,.89.62,1.26,1.26,0,0,0,.33-.05,1,1,0,0,0,.53-.49.93.93,0,0,0,0-.73Z" fill="#0b0b29"/>
          <path d="M36.91,29.61A3.07,3.07,0,0,0,33,27.78a3.06,3.06,0,0,0-1.83,3.91A1,1,0,1,0,33,31a1.15,1.15,0,0,1,.69-1.48,1.17,1.17,0,0,1,.88,0,1.21,1.21,0,0,1,.6.66,1,1,0,0,0,1.75.07A.9.9,0,0,0,36.91,29.61Z" fill="#0b0b29"/>
          <path d="M28.59,32.94A.94.94,0,0,0,28,34.15,1.24,1.24,0,0,1,25.7,35a1,1,0,0,0-.49-.54.93.93,0,0,0-.73,0,1,1,0,0,0-.57,1.22,1.23,1.23,0,1,1-2.32.84,1,1,0,1,0-1.79.65,3.15,3.15,0,0,0,3,2.06A3.28,3.28,0,0,0,23.82,39a3.11,3.11,0,0,0,1.75-1.59,3.14,3.14,0,0,0,4.24-3.92A1,1,0,0,0,28.59,32.94Z" fill="#0b0b29"/>
        </g>
        <path d="M48.68,27.27A22.12,22.12,0,0,0,36.1,14.36a25.15,25.15,0,0,0-8-1.87,11.91,11.91,0,0,0-.6-11A3.07,3.07,0,0,0,24.4,0,12,12,0,0,0,15,8.22,12,12,0,0,0,2.47,8,3.05,3.05,0,0,0,1,11.14a12.7,12.7,0,0,0,1.27,3.72,1.34,1.34,0,0,0,.78.64,1.31,1.31,0,0,0,1-.09,1.33,1.33,0,0,0,.55-1.79,10,10,0,0,1-1-2.93.38.38,0,0,1,.19-.4,9.26,9.26,0,0,1,7.69-.84,9.14,9.14,0,0,1,5.27,4.74l-1.08.44L9.09,11.55a1.34,1.34,0,0,0-1-.05,1.3,1.3,0,0,0-.74.68,1.34,1.34,0,0,0,0,1,1.3,1.3,0,0,0,.68.74l4.7,2.2A27,27,0,0,0,9.84,18a9,9,0,0,1-3.51-2.1,1.33,1.33,0,0,0-1.87,0,1.27,1.27,0,0,0-.37.94,1.25,1.25,0,0,0,.4.93A11.43,11.43,0,0,0,7.58,20a25.34,25.34,0,0,0-4.91,6.52A21.89,21.89,0,0,0,13.88,57.36a25.28,25.28,0,0,0,9.76,1.93,27.12,27.12,0,0,0,9.25-1.65A26.39,26.39,0,0,0,46.9,46a1.33,1.33,0,0,0-2.31-1.31A23.76,23.76,0,0,1,32,55.16c-11.7,4.24-24.34-1-28.2-11.61a19.44,19.44,0,0,1,1.89-17A24.08,24.08,0,0,1,23,15.32c10.4-1.46,19.95,3.82,23.23,12.85a19.22,19.22,0,0,1-.26,13.7,1.32,1.32,0,0,0,1.76,1.69,1.26,1.26,0,0,0,.7-.73A22.14,22.14,0,0,0,48.68,27.27ZM24,8.13a1.33,1.33,0,0,0-.64-1.76,1.24,1.24,0,0,0-.56-.13,1.42,1.42,0,0,0-.45.08A1.34,1.34,0,0,0,21.6,7L19,12.66a11.84,11.84,0,0,0-1.74-2.51,9.12,9.12,0,0,1,7.64-7.5.38.38,0,0,1,.39.19,9.24,9.24,0,0,1-.08,9.62,27.53,27.53,0,0,0-3.37.36Z" fill="#0b0b29"/>
        <g>
          <path d="M70.34,32.86a8.74,8.74,0,0,1-2,6.14,7.34,7.34,0,0,1-5.68,2.14A7.33,7.33,0,0,1,57,39a8.76,8.76,0,0,1-2-6.16,8.64,8.64,0,0,1,2-6.13,7.4,7.4,0,0,1,5.69-2.12,7.3,7.3,0,0,1,5.67,2.13A8.76,8.76,0,0,1,70.34,32.86Zm-11.74,0a6.73,6.73,0,0,0,1,4.06,3.6,3.6,0,0,0,3.06,1.36c2.72,0,4.08-1.8,4.08-5.42s-1.35-5.43-4.06-5.43a3.6,3.6,0,0,0-3.07,1.37A6.73,6.73,0,0,0,58.6,32.86Z" fill="#0b0b29"/>
          <path d="M80.27,28.39a5.76,5.76,0,0,1,1.13.1l-.25,3.15a4,4,0,0,0-1-.11,3.55,3.55,0,0,0-2.5.82,3,3,0,0,0-.9,2.31v6.26H73.41V28.63H76l.49,2.06h.17A4.55,4.55,0,0,1,78.15,29,3.85,3.85,0,0,1,80.27,28.39Z" fill="#0b0b29"/>
          <path d="M91.45,40.92l-.65-1.67h-.09A4.94,4.94,0,0,1,89,40.73a5.58,5.58,0,0,1-2.34.41,3.76,3.76,0,0,1-2.79-1,3.86,3.86,0,0,1-1-2.88,3.25,3.25,0,0,1,1.37-2.89,8,8,0,0,1,4.13-1l2.14-.06v-.54a1.67,1.67,0,0,0-1.92-1.87,8.79,8.79,0,0,0-3.46.89L84,29.48a10,10,0,0,1,4.71-1.11,5.84,5.84,0,0,1,3.79,1.08,4,4,0,0,1,1.32,3.28v8.19Zm-1-5.69-1.3,0A4.19,4.19,0,0,0,87,35.8a1.66,1.66,0,0,0-.71,1.47c0,.95.54,1.42,1.62,1.42A2.58,2.58,0,0,0,89.76,38a2.38,2.38,0,0,0,.7-1.78Z" fill="#0b0b29"/>
          <path d="M108.6,40.92h-3.36V33.74a3.51,3.51,0,0,0-.47-2,1.74,1.74,0,0,0-1.51-.66,2.24,2.24,0,0,0-2,.94,5.83,5.83,0,0,0-.63,3.12v5.78H97.24V28.63h2.57l.45,1.57h.19A3.49,3.49,0,0,1,102,28.85a5.34,5.34,0,0,1,2.24-.46,4.3,4.3,0,0,1,3.26,1.17,4.64,4.64,0,0,1,1.11,3.34Z" fill="#0b0b29"/>
          <path d="M122.75,28.63v1.7l-1.92.5a3.35,3.35,0,0,1,.53,1.84A3.74,3.74,0,0,1,120,35.76a6,6,0,0,1-3.84,1.1l-.6,0-.5,0a1.1,1.1,0,0,0-.51.88c0,.48.61.72,1.84.72h2.09a4.78,4.78,0,0,1,3.09.87,3.1,3.1,0,0,1,1.06,2.55,3.79,3.79,0,0,1-1.8,3.35,9.38,9.38,0,0,1-5.16,1.19,7.1,7.1,0,0,1-3.93-.9,2.84,2.84,0,0,1-1.36-2.51,2.64,2.64,0,0,1,.69-1.86,3.9,3.9,0,0,1,2-1.07,2.31,2.31,0,0,1-.91-.72,1.74,1.74,0,0,1-.38-1.06,1.67,1.67,0,0,1,.41-1.17,4.72,4.72,0,0,1,1.17-.92,3.36,3.36,0,0,1-1.53-1.34,4.1,4.1,0,0,1-.57-2.18,3.88,3.88,0,0,1,1.31-3.12,5.67,5.67,0,0,1,3.74-1.1,10.4,10.4,0,0,1,1.23.1c.47.06.77.11.9.14Zm-9.49,14a1.21,1.21,0,0,0,.67,1.09,3.67,3.67,0,0,0,1.86.4,6.61,6.61,0,0,0,2.83-.5,1.51,1.51,0,0,0,1-1.35,1,1,0,0,0-.6-1,5.13,5.13,0,0,0-1.87-.26h-1.74a2.65,2.65,0,0,0-1.55.43A1.36,1.36,0,0,0,113.26,42.66Zm1.22-10a2.49,2.49,0,0,0,.46,1.59,2,2,0,0,0,2.78,0,2.61,2.61,0,0,0,.44-1.59q0-2.22-1.83-2.22C115.1,30.43,114.48,31.17,114.48,32.65Z" fill="#0b0b29"/>
          <path d="M130.34,41.14a6.36,6.36,0,0,1-4.64-1.63A6.26,6.26,0,0,1,124,34.86a6.84,6.84,0,0,1,1.55-4.78,5.51,5.51,0,0,1,4.27-1.69,5.42,5.42,0,0,1,4.06,1.49,5.61,5.61,0,0,1,1.45,4.1v1.63h-7.93a3.23,3.23,0,0,0,.85,2.23,3,3,0,0,0,2.22.81,9.45,9.45,0,0,0,2.1-.23,10.8,10.8,0,0,0,2.07-.74v2.6a8,8,0,0,1-1.88.65A12.21,12.21,0,0,1,130.34,41.14Zm-.47-10.36a2.13,2.13,0,0,0-1.67.68,3.15,3.15,0,0,0-.69,1.92h4.7a2.81,2.81,0,0,0-.64-1.92A2.22,2.22,0,0,0,129.87,30.78Z" fill="#0b0b29"/>
          <path d="M149.46,29.86a4.92,4.92,0,0,1-1.62,4,6.91,6.91,0,0,1-4.61,1.37h-1.47v5.72h-3.41V24.84h5.14a6.84,6.84,0,0,1,4.45,1.26A4.61,4.61,0,0,1,149.46,29.86Zm-7.7,2.55h1.12a3.78,3.78,0,0,0,2.36-.62A2.19,2.19,0,0,0,146,30a2.22,2.22,0,0,0-.66-1.77,3.06,3.06,0,0,0-2.05-.57h-1.55Z" fill="#0b0b29"/>
          <path d="M160.05,40.92l-.65-1.67h-.09a5,5,0,0,1-1.75,1.48,5.5,5.5,0,0,1-2.33.41,3.76,3.76,0,0,1-2.79-1,3.86,3.86,0,0,1-1-2.88,3.25,3.25,0,0,1,1.37-2.89,8,8,0,0,1,4.13-1l2.13-.06v-.54a1.67,1.67,0,0,0-1.91-1.87,8.75,8.75,0,0,0-3.46.89l-1.12-2.27a10,10,0,0,1,4.71-1.11,5.87,5.87,0,0,1,3.8,1.08,4,4,0,0,1,1.32,3.28v8.19Zm-1-5.69-1.29,0a4.19,4.19,0,0,0-2.18.53,1.64,1.64,0,0,0-.72,1.47c0,.95.55,1.42,1.63,1.42a2.58,2.58,0,0,0,1.87-.67,2.37,2.37,0,0,0,.69-1.78Z" fill="#0b0b29"/>
          <path d="M172.6,41.14a4.07,4.07,0,0,1-3.4-1.57H169c.12,1,.18,1.62.18,1.78v5h-3.36V28.63h2.73l.47,1.59h.16a3.86,3.86,0,0,1,3.48-1.83,4,4,0,0,1,3.41,1.69,7.71,7.71,0,0,1,1.24,4.67,9.27,9.27,0,0,1-.58,3.42,4.74,4.74,0,0,1-1.65,2.21A4.16,4.16,0,0,1,172.6,41.14Zm-1-10.06a2.12,2.12,0,0,0-1.82.76,4.37,4.37,0,0,0-.59,2.53v.36a5.11,5.11,0,0,0,.59,2.84,2.1,2.1,0,0,0,1.86.86c1.5,0,2.26-1.24,2.26-3.72a5.28,5.28,0,0,0-.56-2.72A1.88,1.88,0,0,0,171.61,31.08Z" fill="#0b0b29"/>
          <path d="M185.66,41.14A6.36,6.36,0,0,1,181,39.51a6.26,6.26,0,0,1-1.67-4.65,6.84,6.84,0,0,1,1.55-4.78,5.51,5.51,0,0,1,4.27-1.69,5.42,5.42,0,0,1,4.06,1.49,5.61,5.61,0,0,1,1.45,4.1v1.63h-7.93a3.23,3.23,0,0,0,.85,2.23,2.94,2.94,0,0,0,2.22.81,9.45,9.45,0,0,0,2.1-.23,10.8,10.8,0,0,0,2.07-.74v2.6a8,8,0,0,1-1.88.65A12.21,12.21,0,0,1,185.66,41.14Zm-.47-10.36a2.13,2.13,0,0,0-1.67.68,3.09,3.09,0,0,0-.69,1.92h4.7a2.81,2.81,0,0,0-.64-1.92A2.22,2.22,0,0,0,185.19,30.78Z" fill="#0b0b29"/>
          <path d="M200.27,28.39a5.87,5.87,0,0,1,1.14.1l-.26,3.15a4,4,0,0,0-1-.11,3.55,3.55,0,0,0-2.5.82,3,3,0,0,0-.9,2.31v6.26h-3.35V28.63H196l.49,2.06h.17A4.58,4.58,0,0,1,198.16,29,3.79,3.79,0,0,1,200.27,28.39Z" fill="#0b0b29"/>
        </g>
      </g>
    </g>
  </g>
</svg>
